<svg xmlns="http://www.w3.org/2000/svg" width="22" height="14" viewBox="0 0 22 14">
  <path id="airport_shuttle_FILL1_wght400_GRAD0_opsz24" d="M6,19a2.988,2.988,0,0,1-3-3H1V7a1.923,1.923,0,0,1,.588-1.412A1.923,1.923,0,0,1,3,5H17l6,6v5H21a3.005,3.005,0,0,1-5.125,2.125A2.893,2.893,0,0,1,15,16H9a2.988,2.988,0,0,1-3,3Zm9-9h4L16,7H15ZM9,10h4V7H9ZM3,10H7V7H3Zm3,7.25a1.25,1.25,0,1,0-.887-2.137A1.25,1.25,0,0,0,6,17.25Zm12,0a1.24,1.24,0,1,0-.887-.363A1.208,1.208,0,0,0,18,17.25Z" transform="translate(-1 -5)" fill="#ffac00"/>
</svg>
