<svg xmlns="http://www.w3.org/2000/svg" width="20.873" height="15.102" viewBox="0 0 20.873 15.102">
  <path id="形状" d="M16.024,4.5a4.887,4.887,0,0,1,4.184,2.174,11.719,11.719,0,0,1,1.96,4.462,11.81,11.81,0,0,1,.157,4.773,4.3,4.3,0,0,1-2.767,3.525,4.312,4.312,0,0,1-4.052-1.072,12.852,12.852,0,0,1-2.552-3.176c-.328-.545-.626-1.095-.889-1.616-.264.521-.562,1.071-.889,1.616a12.851,12.851,0,0,1-2.552,3.176A4.312,4.312,0,0,1,4.57,19.437,4.3,4.3,0,0,1,1.8,15.912a11.812,11.812,0,0,1,.157-4.773A11.72,11.72,0,0,1,3.92,6.677,4.887,4.887,0,0,1,8.1,4.5a5.409,5.409,0,0,1,3.741,2.268l.219.289h0l.219-.289A5.409,5.409,0,0,1,16.024,4.5ZM7.9,7.5c-.421-.029-.969.186-1.592,1a8.763,8.763,0,0,0-1.417,3.3,8.859,8.859,0,0,0-.144,3.519c.165.811.429,1.1.592,1.2l.067.035h0l.027.01c.233.069.614.051,1.261-.494A9.973,9.973,0,0,0,8.6,13.642c.272-.453.525-.916.752-1.362l.26-.525h0l.234-.5h0l.205-.458h0l.175-.408h0l.143-.346h0A8.923,8.923,0,0,0,9.71,8.927C9.066,8.011,8.421,7.533,7.9,7.5Zm8.335,0c-.524.036-1.17.514-1.814,1.431a8.918,8.918,0,0,0-.663,1.119l.227.543h0l.191.434q.051.114.106.234l.234.5h0l.26.525c.227.446.479.91.752,1.362a9.973,9.973,0,0,0,1.913,2.427c.6.505.973.558,1.209.507l.052-.013c.13-.039.484-.249.686-1.247A8.859,8.859,0,0,0,19.24,11.8a8.763,8.763,0,0,0-1.417-3.3C17.2,7.682,16.652,7.467,16.231,7.5Z" transform="translate(-1.627 -4.493)" fill="#f2154f" fill-rule="evenodd"/>
</svg>
