<svg xmlns="http://www.w3.org/2000/svg" width="11.011" height="11.011" viewBox="0 0 11.011 11.011">
  <path id="route_FILL1_wght400_GRAD0_opsz24" d="M6.67,14.011a2.454,2.454,0,0,1-2.447-2.447v-5a1.891,1.891,0,0,1-.88-.666A1.744,1.744,0,0,1,3,4.835,1.828,1.828,0,0,1,4.835,3,1.828,1.828,0,0,1,6.67,4.835,1.744,1.744,0,0,1,6.327,5.9a1.891,1.891,0,0,1-.88.666v5a1.222,1.222,0,0,0,2.088.864,1.18,1.18,0,0,0,.359-.864V5.447a2.356,2.356,0,0,1,.719-1.728,2.437,2.437,0,0,1,3.456,0,2.356,2.356,0,0,1,.719,1.728v5a1.893,1.893,0,0,1,.88.665,1.747,1.747,0,0,1,.344,1.063,1.838,1.838,0,0,1-3.135,1.3,1.834,1.834,0,0,1,.688-3.028v-5a1.223,1.223,0,0,0-2.447,0v6.117A2.454,2.454,0,0,1,6.67,14.011Z" transform="translate(-3 -3)"/>
</svg>
