<svg xmlns="http://www.w3.org/2000/svg" width="11" height="11" viewBox="0 0 11 11">
  <path id="history_FILL1_wght400_GRAD0_opsz24" d="M8.5,14a5.339,5.339,0,0,1-3.674-1.4,5.3,5.3,0,0,1-1.8-3.491H4.283A4.086,4.086,0,0,0,5.7,11.739a4.149,4.149,0,0,0,2.8,1.039A4.252,4.252,0,0,0,12.778,8.5,4.251,4.251,0,0,0,8.5,4.222a4.125,4.125,0,0,0-1.971.489A4.541,4.541,0,0,0,4.986,6.056H6.667V7.278H3V3.611H4.222V5.047a5.335,5.335,0,0,1,1.9-1.512A5.456,5.456,0,0,1,8.5,3a5.326,5.326,0,0,1,2.147.435,5.526,5.526,0,0,1,2.918,2.918,5.512,5.512,0,0,1,0,4.293,5.529,5.529,0,0,1-2.918,2.919A5.326,5.326,0,0,1,8.5,14Zm1.711-2.933L7.889,8.744v-3.3H9.111V8.256l1.956,1.956Z" transform="translate(-3 -3)"/>
</svg>
