<svg xmlns="http://www.w3.org/2000/svg" width="18" height="18" viewBox="0 0 18 18">
  <path id="形状" d="M18,3a3,3,0,0,1,3,3V18a3,3,0,0,1-3,3H6a3,3,0,0,1-3-3V6A3,3,0,0,1,6,3ZM8,10a1,1,0,0,0-1,1v5a1,1,0,0,0,2,0V11A1,1,0,0,0,8,10Zm3-1a1,1,0,0,0-1,1v6a1,1,0,0,0,2,0V12.34a4.153,4.153,0,0,1,1.393-.993,1.9,1.9,0,0,1,1.182-.09.548.548,0,0,1,.293.188A.909.909,0,0,1,15,12v4a1,1,0,0,0,2,0V12a2.875,2.875,0,0,0-.524-1.744,2.54,2.54,0,0,0-1.3-.906,3.887,3.887,0,0,0-2.568.159,5.819,5.819,0,0,0-.623.313A1,1,0,0,0,11,9ZM8,7A1,1,0,1,0,9,8,1,1,0,0,0,8,7Z" transform="translate(-3 -3)" fill="#f2154f" fill-rule="evenodd"/>
</svg>
