<svg xmlns="http://www.w3.org/2000/svg" width="12.058" height="10.586" viewBox="0 0 12.058 10.586">
  <path id="view_week_FILL1_wght400_GRAD0_opsz24" d="M1.059,12.058a.9.9,0,0,1-.747-.442A1.805,1.805,0,0,1,0,10.551V1.507A1.8,1.8,0,0,1,.311.443.9.9,0,0,1,1.059,0h.7a.9.9,0,0,1,.748.443,1.8,1.8,0,0,1,.311,1.064v9.044a1.808,1.808,0,0,1-.311,1.065.9.9,0,0,1-.748.442Zm3.89,0a.9.9,0,0,1-.747-.442,1.805,1.805,0,0,1-.311-1.065V1.507A1.8,1.8,0,0,1,4.2.443.9.9,0,0,1,4.949,0h.7A.9.9,0,0,1,6.4.443a1.8,1.8,0,0,1,.311,1.064v9.044A1.808,1.808,0,0,1,6.4,11.616a.9.9,0,0,1-.748.442Zm3.877,0a.9.9,0,0,1-.747-.442,1.805,1.805,0,0,1-.311-1.065V1.507A1.8,1.8,0,0,1,8.079.443.9.9,0,0,1,8.826,0h.7a.9.9,0,0,1,.748.443,1.8,1.8,0,0,1,.311,1.064v9.044a1.808,1.808,0,0,1-.311,1.065.9.9,0,0,1-.748.442Z" transform="translate(0 10.586) rotate(-90)"/>
</svg>
