<svg xmlns="http://www.w3.org/2000/svg" width="14.864" height="15.726" viewBox="0 0 14.864 15.726">
  <path id="形状" d="M7.037,6.291l.077.068,6.893,6.893a.812.812,0,0,1-.2,1.295l-.094.042L5.277,17.7A2.031,2.031,0,0,1,2.63,15.208l.04-.119L5.778,6.653a.812.812,0,0,1,1.175-.419ZM14.373,9.82a5.782,5.782,0,0,1,2.637.725.812.812,0,0,1-.752,1.437l-.084-.044a4.182,4.182,0,0,0-1.886-.5,6.233,6.233,0,0,0-.772,0l-.256.026a.812.812,0,0,1-.229-1.608A6.975,6.975,0,0,1,14.373,9.82Zm1.645-2.263a.812.812,0,0,1,.095,1.619l-.095.005h-.574a.812.812,0,0,1-.095-1.619l.095-.005Zm-2.585-.624A.812.812,0,0,1,13.5,8.006l-.068.077-.862.862a.812.812,0,0,1-1.216-1.072l.068-.077.862-.862A.812.812,0,0,1,13.433,6.933Zm-2.1-4.278a5.553,5.553,0,0,1-.059,3.127,8.212,8.212,0,0,1-.56,1.514.812.812,0,0,1-1.454-.725,6.632,6.632,0,0,0,.446-1.216,4.271,4.271,0,0,0,.135-2.01L9.79,3.17a.812.812,0,1,1,1.541-.514Zm4.4,1.98a.812.812,0,0,1,0,1.149l-.574.574A.812.812,0,0,1,14.007,5.21l.574-.574A.812.812,0,0,1,15.73,4.636Z" transform="translate(-2.54 -2.1)" fill="#ffac00"/>
</svg>
