<svg xmlns="http://www.w3.org/2000/svg" width="19" height="17" viewBox="0 0 19 17">
  <path id="路径" d="M4.594,4.984a1,1,0,0,1,.941.429,6.9,6.9,0,0,0,5.214,3.261,6.144,6.144,0,0,1,.75-2.4,4.461,4.461,0,0,1,3.1-2.156,4.777,4.777,0,0,1,4.427,1.215l1.792-.335a1,1,0,0,1,1.053,1.478L20.15,9.494c.157,4.361-1.055,7.405-3.639,9.5a10.2,10.2,0,0,1-5.485,1.938,19.352,19.352,0,0,1-7.061-.753,1,1,0,0,1,.007-1.922,11.371,11.371,0,0,0,3-1.177,7.24,7.24,0,0,1-2.707-2.416,8.118,8.118,0,0,1-1.255-4.113,12.938,12.938,0,0,1,.329-3.438A11.089,11.089,0,0,1,3.776,5.62,1,1,0,0,1,4.594,4.984Z" transform="translate(-3 -4)" fill="#f2154f"/>
</svg>
