<svg xmlns="http://www.w3.org/2000/svg" width="11" height="10.421" viewBox="0 0 11 10.421">
  <path id="account_balance_wallet_FILL1_wght400_GRAD0_opsz24" d="M10.526,9.079A.842.842,0,1,0,9.9,8.833.844.844,0,0,0,10.526,9.079ZM8.789,11.105A1.161,1.161,0,0,1,7.632,9.947V6.474A1.161,1.161,0,0,1,8.789,5.316h4.053A1.16,1.16,0,0,1,14,6.474V9.947a1.16,1.16,0,0,1-1.158,1.158ZM4.158,13.421A1.16,1.16,0,0,1,3,12.263V4.158A1.16,1.16,0,0,1,4.158,3h8.105a1.16,1.16,0,0,1,1.158,1.158H8.789A2.208,2.208,0,0,0,6.474,6.474V9.947a2.209,2.209,0,0,0,2.316,2.316h4.632a1.16,1.16,0,0,1-1.158,1.158Z" transform="translate(-3 -3)"/>
</svg>
