<svg xmlns="http://www.w3.org/2000/svg" width="20" height="16" viewBox="0 0 20 16">
  <path id="形状" d="M12,4c.855,0,1.732.022,2.582.058l1,.048h0l.961.057h0l.9.062h0l.821.063h0a3.8,3.8,0,0,1,3.495,3.423l.04.425h0l.075.91c.07.943.122,1.972.122,2.954s-.052,2.011-.122,2.954l-.075.91q-.02.218-.04.424a3.8,3.8,0,0,1-3.495,3.423l-.821.063h0l-.9.062h0l-.961.057h0l-1,.048c-.85.035-1.726.058-2.582.058s-1.732-.022-2.582-.058l-1-.048h0l-.961-.057h0l-.9-.062h0l-.821-.063h0a3.8,3.8,0,0,1-3.495-3.423l-.04-.424h0l-.075-.91C2.052,14.011,2,12.983,2,12s.052-2.011.122-2.954l.075-.91q.02-.218.04-.425A3.8,3.8,0,0,1,5.732,4.288l.821-.063h0l.9-.062h0l.961-.057h0l1-.048C10.268,4.022,11.145,4,12,4ZM10,9.575v4.85a.6.6,0,0,0,.9.52l4.2-2.425a.6.6,0,0,0,0-1.039L10.9,9.056A.6.6,0,0,0,10,9.575Z" transform="translate(-2 -4)" fill="#f2154f" fill-rule="evenodd"/>
</svg>
